<?xml version="1.0" standalone="no"?>
<!DOCTYPE svg PUBLIC "-//W3C//DTD SVG 20010904//EN"
 "http://www.w3.org/TR/2001/REC-SVG-20010904/DTD/svg10.dtd">
<svg version="1.0" xmlns="http://www.w3.org/2000/svg"
 width="259.000000pt" height="258.000000pt" viewBox="0 0 259.000000 258.000000"
 preserveAspectRatio="xMidYMid meet">

<g transform="translate(0.000000,258.000000) scale(0.100000,-0.100000)"
fill="#000000" stroke="none">
<path d="M1152 2569 c-689 -72 -1197 -688 -1142 -1382 40 -497 363 -924 832
-1101 152 -57 239 -70 448 -70 171 0 207 3 290 23 232 58 430 165 594 321 262
250 398 567 397 930 0 252 -58 464 -181 665 -216 353 -566 572 -979 614 -115
12 -140 12 -259 0z m343 -35 c324 -57 605 -226 797 -482 287 -381 339 -874
136 -1299 -170 -359 -488 -608 -893 -700 -112 -25 -378 -25 -490 0 -261 59
-467 170 -644 348 -340 339 -457 834 -306 1286 66 196 159 348 306 494 186
186 416 306 676 353 107 19 308 19 418 0z"/>
<path d="M1133 2123 c-107 -62 -135 -73 -176 -73 -24 0 -48 -5 -55 -12 -19
-19 -14 -89 8 -126 21 -34 106 -82 146 -82 31 0 41 -18 45 -77 4 -50 3 -53
-22 -58 -33 -7 -55 -31 -64 -68 -4 -15 -20 -36 -36 -48 -34 -24 -36 -37 -9
-89 19 -37 24 -40 61 -40 30 0 47 -7 66 -26 22 -22 25 -31 19 -70 -7 -52 10
-52 19 0 13 64 -37 116 -112 116 -17 0 -28 10 -40 35 l-17 35 32 31 c18 17 32
39 32 49 0 26 30 47 78 55 36 6 47 13 69 48 l25 40 14 -24 c7 -13 13 -39 14
-57 0 -24 11 -47 39 -80 48 -56 84 -133 108 -224 17 -68 40 -97 28 -35 -21
104 -68 208 -120 266 -24 27 -35 48 -35 70 0 43 -26 101 -44 101 -9 0 -27 -18
-41 -40 -14 -22 -30 -40 -35 -40 -6 0 -10 26 -10 59 0 35 -5 63 -12 69 -7 5
-40 17 -72 27 -40 11 -71 28 -93 50 -30 30 -34 40 -31 77 l3 43 50 5 c46 6 68
15 165 70 46 26 105 25 160 -2 63 -33 81 -70 90 -186 8 -113 16 -132 106 -246
58 -72 146 -229 182 -326 8 -19 16 -30 18 -23 8 19 -53 163 -101 242 -25 40
-68 101 -96 134 -72 87 -82 109 -89 218 -9 114 -32 165 -91 199 -55 30 -135
36 -176 13z"/>
<path d="M1186 2018 c-50 -105 -33 -176 45 -193 50 -11 95 11 113 56 18 44 22
139 6 139 -5 0 -10 -23 -10 -50 0 -76 -20 -116 -63 -124 -105 -20 -135 72 -61
187 18 28 21 37 10 37 -8 0 -26 -24 -40 -52z"/>
<path d="M1093 2045 c5 -13 59 -13 64 1 2 6 -11 10 -32 10 -19 -1 -33 -5 -32
-11z"/>
<path d="M1043 1596 c2 -6 14 -11 27 -11 13 0 25 5 27 11 2 6 -10 11 -27 11
-17 0 -29 -5 -27 -11z"/>
<path d="M808 1163 c8 -3 12 -30 12 -83 0 -53 -4 -80 -12 -83 -7 -3 7 -6 32
-6 35 0 41 2 28 10 -29 16 -23 56 9 64 39 10 53 24 53 54 0 40 -18 51 -79 50
-31 0 -50 -3 -43 -6z m94 -28 c13 -29 -3 -55 -33 -55 -15 0 -19 8 -19 40 0 33
3 40 20 40 12 0 25 -10 32 -25z"/>
<path d="M1050 1144 c13 -33 13 -96 0 -129 l-10 -26 68 3 c63 3 67 4 70 28 2
23 1 24 -11 8 -9 -11 -28 -18 -51 -18 -35 0 -36 1 -36 35 0 30 3 35 25 35 13
0 29 -8 34 -17 9 -15 10 -12 11 17 0 26 -3 31 -12 22 -7 -7 -22 -12 -35 -12
-20 0 -23 5 -23 35 0 33 2 35 31 35 19 0 37 -7 45 -17 12 -17 13 -16 14 5 0
21 -4 22 -65 22 l-65 0 10 -26z"/>
<path d="M1270 1144 c0 -14 4 -23 10 -19 6 3 10 13 10 21 0 10 8 14 23 12 20
-3 22 -9 25 -73 2 -57 0 -72 -14 -82 -15 -11 -12 -13 27 -13 35 1 40 3 27 11
-15 8 -18 24 -18 84 0 67 2 75 19 75 10 0 26 -10 34 -22 l16 -23 0 28 1 27
-80 0 c-79 0 -80 0 -80 -26z"/>
<path d="M1718 1163 c16 -6 17 -144 0 -161 -9 -9 -3 -12 28 -11 21 0 33 3 27
6 -9 3 -13 30 -13 83 0 53 4 80 13 83 6 3 -6 5 -28 5 -22 0 -34 -2 -27 -5z"/>
<path d="M1535 1060 c-4 -6 8 -10 29 -10 20 0 36 5 36 10 0 6 -13 10 -29 10
-17 0 -33 -4 -36 -10z"/>
<path d="M940 850 c-7 -14 -22 -20 -48 -22 -37 -1 -37 -1 -4 -5 17 -2 32 -6
32 -7 0 -2 -7 -20 -15 -39 -8 -20 -15 -42 -14 -49 0 -7 9 11 20 40 18 47 24
52 52 53 30 2 31 2 5 6 -24 4 -27 7 -18 24 6 10 8 19 6 19 -3 0 -10 -9 -16
-20z"/>
<path d="M783 735 c-21 -20 -33 -34 -27 -31 7 3 14 -3 17 -14 3 -11 13 -20 24
-20 17 1 17 1 1 11 -19 11 -25 39 -8 39 6 0 10 6 10 14 0 8 7 16 15 20 8 3 15
1 15 -3 0 -5 -6 -12 -12 -14 -10 -4 -10 -6 -1 -6 17 -1 27 19 15 31 -7 7 -22
-2 -49 -27z"/>
<path d="M1743 763 c4 -3 1 -13 -6 -22 -11 -14 -10 -14 5 -2 16 12 16 31 1 31
-4 0 -3 -3 0 -7z"/>
<path d="M1586 738 c-28 -40 -13 -87 15 -50 13 15 12 16 -3 3 -21 -16 -23 -3
-7 33 7 14 19 27 28 29 14 4 14 5 -1 6 -9 0 -24 -9 -32 -21z"/>
<path d="M1707 740 c-8 -11 -17 -17 -20 -14 -3 3 -2 -7 2 -22 4 -18 15 -30 27
-32 18 -3 18 -2 2 8 -19 11 -25 40 -9 40 5 0 11 9 14 20 7 25 2 25 -16 0z"/>
<path d="M1785 721 l-29 -36 31 29 c17 15 36 25 42 22 6 -4 11 -3 11 2 0 24
-28 15 -55 -17z"/>
<path d="M642 725 c-17 -37 -14 -45 4 -12 9 16 14 31 11 33 -2 2 -9 -7 -15
-21z"/>
<path d="M682 738 c-15 -19 -43 -78 -37 -78 2 0 14 18 25 40 22 43 46 55 34
18 -3 -13 -11 -29 -16 -35 -11 -14 1 -17 17 -5 16 12 17 72 1 72 -7 0 -18 -6
-24 -12z"/>
<path d="M945 711 c-16 -20 -22 -30 -12 -22 15 12 17 11 17 -3 0 -9 5 -16 10
-16 7 0 7 6 0 20 -6 11 -7 20 -1 20 8 0 25 30 19 35 -2 1 -16 -14 -33 -34z"/>
<path d="M998 733 c-8 -10 -18 -25 -23 -33 -4 -8 4 -2 17 14 14 17 30 26 36
22 7 -4 12 -2 12 3 0 17 -25 13 -42 -6z"/>
<path d="M1150 723 c-14 -15 -19 -23 -12 -19 8 5 12 0 12 -13 0 -27 15 -27 33
-1 l14 21 6 -21 c3 -11 11 -20 18 -20 10 0 10 3 2 11 -7 7 -10 24 -7 38 5 22
2 27 -18 28 -14 1 -33 -8 -48 -24z m58 -1 c2 -7 -1 -11 -6 -10 -6 2 -18 -6
-26 -17 -15 -20 -15 -20 -16 1 0 36 37 57 48 26z"/>
<path d="M1284 718 c-16 -18 -21 -26 -11 -19 15 12 17 11 17 -8 0 -12 4 -20
10 -16 5 3 7 12 4 20 -3 7 -1 23 6 34 15 29 9 26 -26 -11z"/>
<path d="M1333 738 c-6 -7 -13 -20 -17 -28 -4 -8 1 -5 10 8 21 28 30 28 38 -3
6 -24 39 -35 50 -17 3 5 -5 8 -17 8 -15 -1 -23 6 -25 22 -4 24 -24 29 -39 10z"/>
<path d="M1449 734 c-16 -20 -22 -51 -10 -58 4 -3 17 4 27 17 l19 22 -22 -19
c-26 -21 -27 -19 -13 18 8 23 42 38 39 19 -1 -5 -1 -20 0 -35 1 -34 20 -36 52
-7 l24 21 -25 -16 c-33 -21 -37 -20 -42 9 -3 14 -1 25 6 25 14 0 -15 20 -30
20 -6 0 -18 -7 -25 -16z"/>
<path d="M1047 719 c-11 -15 -16 -17 -20 -7 -4 9 -6 7 -6 -4 -1 -24 16 -23 29
2 6 11 15 20 20 20 6 0 10 -9 10 -20 0 -14 6 -20 23 -19 15 1 17 3 6 6 -10 2
-19 13 -22 24 -7 25 -22 24 -40 -2z"/>
<path d="M1909 724 c-12 -14 -61 -44 -74 -44 -3 0 -6 10 -6 23 -1 18 -2 19 -6
3 -8 -29 11 -40 43 -23 27 14 74 57 62 57 -3 0 -11 -7 -19 -16z"/>
<path d="M1614 719 c-4 -8 -3 -9 4 -5 30 18 7 -22 -43 -76 -57 -61 -76 -101
-57 -120 8 -8 16 -7 27 2 20 17 78 130 71 137 -3 3 1 12 9 20 8 8 15 21 15 28
0 19 -17 28 -26 14z m-33 -127 c-29 -58 -47 -79 -57 -69 -11 11 10 58 43 97
19 22 37 39 40 36 2 -2 -9 -31 -26 -64z"/>
<path d="M849 703 c-13 -16 -12 -17 4 -4 9 7 17 15 17 17 0 8 -8 3 -21 -13z"/>
<path d="M880 698 c0 -9 5 -20 11 -23 17 -11 18 -2 3 19 -12 17 -14 17 -14 4z"/>
<path d="M615 631 c5 -16 4 -21 -4 -17 -6 4 -11 3 -11 -3 0 -5 -3 -16 -6 -25
-3 -9 -2 -16 3 -16 11 0 46 70 38 78 -3 3 -5 -1 -5 -9 0 -12 -2 -11 -11 1 -8
12 -9 10 -4 -9z"/>
</g>
</svg>
